<?xml version="1.0" encoding="utf-8"?>
<!-- Generator: Adobe Illustrator 26.5.0, SVG Export Plug-In . SVG Version: 6.00 Build 0)  -->
<svg version="1.1" id="Layer_1" xmlns="http://www.w3.org/2000/svg" xmlns:xlink="http://www.w3.org/1999/xlink" x="0px" y="0px"
	 viewBox="0 0 598.53 281.13" enable-background="new 0 0 598.53 281.13" xml:space="preserve">
<g>
	<path d="M287.74,206.34c7.02-2.24,2.15,47.94,3.51,50.58l-32.67-51.48h-9.09v0.9c2.59-0.33,3.66,2.59,3.6,4.68
		c-1.42,3.12,3.59,54.42-3.42,52.92v0.9h9.99v-0.9c-6.92,1.92-2.05-47.94-3.42-50.76l32.58,51.66h5.58
		c1.48-2.82-3.68-60.75,3.42-58.5v-0.9h-10.08V206.34z M229.33,234.42c6.19-0.68,2.47,22.62,3.42,25.83
		c-21.14,10.25-43.27-15.04-35.28-35.51c3.33-10.55,13.02-17.32,24.48-17.06c5.83-0.09,13.31,1.8,14.4,8.64h0.9v-9.54
		c-64.53-17.57-61.85,76.08,1.53,56.43c1-3.22-2.86-29.66,3.42-28.8v-0.9h-12.87V234.42z M114.81,256.51
		c-0.89,2.71-3.26,5.21-6.35,5.17c0,0-19.71,0-19.71,0v-27.27c3.9,0.89,19.73-2.82,19.8,3.96h0.9v-11.25h-0.9
		c0.03,7.1-15.82,3.35-19.8,4.23v-22.77h18.09c3.62-0.11,5.77,2.04,6.12,5.22h0.9v-8.37H79.21v0.9c2.33-0.24,3.41,2.81,3.51,4.68
		c-1.43,2.94,3.64,54.85-3.51,52.92v0.9h36.9V254.3h-0.9C115.21,254.91,115.08,255.64,114.81,256.51z M153.67,237.03
		c-7.1-5.99-18.82-5.8-24.46-13.5c-7.88-17.38,23.47-21.68,24.25-7.83h0.9v-9.27c-8.76-1.09-18.9-4.21-26.68,1.89
		c-7.18,4.95-7.68,17.35-0.41,22.45c7.24,5.89,19.1,5.75,24.57,13.86c7.15,10.59-8.68,19.87-17.61,17.64
		c-4.99-1.25-9.2-5.24-10.72-10.15c-0.05,3.37-0.09,6.73-0.14,10.1c5.17,1.54,10.4,3.09,15.79,3.26c5.39,0.18,11.03-1.17,15.02-4.79
		C160.84,254.65,161.3,242.52,153.67,237.03z M167.32,206.34c2.34-0.24,3.39,2.79,3.42,4.68c-1.41,2.91,3.56,54.95-3.42,52.92v0.9
		h12.78v-0.9c-6.86,1.56-1.92-49.98-3.33-52.92c0.09-1.82,1.04-4.89,3.33-4.68v-0.9h-12.78V206.34z M61.62,214.57
		c-8.95-10.99-26.92-9.16-39.73-9.14v0.9c2.38-0.26,3.27,2.81,3.33,4.68c-1.41,3.09,3.52,54.39-3.33,52.92v0.9
		c8.26-0.25,22.77,1.12,29.97-2.57C70.91,255.04,75.35,228.71,61.62,214.57z M61.16,247.83c-5.5,11.03-18.48,14.67-29.92,13.86
		v-53.1C52.7,205.49,70.71,228.13,61.16,247.83z M464.99,206.33c2.34-0.24,3.39,2.8,3.42,4.68c-1.41,2.91,3.56,54.95-3.42,52.92v0.9
		h12.78v-0.9c-6.86,1.56-1.92-49.98-3.33-52.92c0.09-1.82,1.04-4.89,3.33-4.68v-0.9h-12.78V206.33z M523.89,256.06
		c-0.84,2.82-3.14,5.5-6.35,5.45c0,0-19.71,0-19.71,0c1.41-2.82-3.57-57.4,3.42-55.17v-0.9H488.3v0.9c2.33-0.24,3.41,2.81,3.51,4.68
		c-1.43,2.94,3.64,54.85-3.51,52.92v0.9h36.9v-11.34h-0.9C524.3,254.28,524.16,255.13,523.89,256.06z M575.78,224.15
		c-7.26-19.95-27.86-19.38-45.72-18.72v0.9c2.38-0.26,3.28,2.82,3.33,4.68c-1.41,3.09,3.52,54.39-3.33,52.92v0.9
		c8.25-0.24,22.78,1.11,29.97-2.56C574.99,256.44,581.58,238.59,575.78,224.15z M569.33,247.82c-5.5,11.03-18.48,14.67-29.92,13.86
		v-53.1C560.87,205.49,578.88,228.13,569.33,247.82z M399.75,238.24c-2.43-3.38-5.88-5.53-10.36-6.35
		c8.95-3.46,13.1-16.51,4.54-22.77c-5.48-5.19-20.36-3.41-27.85-3.69v0.9c2.41-0.26,3.48,2.84,3.51,4.77
		c-1.41,3.09,3.52,54.3-3.33,52.83v0.9c5.39-0.22,18.52,0.64,23.57-0.9C401.31,261.85,406.15,247.73,399.75,238.24z M375.62,208.31
		c8.43-0.98,17.52,2.31,17.19,12.02c0.47,9.34-9.42,11.59-17.19,10.75V208.31z M396.5,249.49c0.2,11.18-11.53,13.15-20.88,12.46
		v-27.99C386.58,232.69,396.56,237.35,396.5,249.49z M444.47,206.33c6.48-1.71,2.15,37.68,3.33,40.41
		c0.58,8.47-3.91,16.74-13.68,16.02c-9.67,0.62-15.06-7.25-14.49-16.2c1.18-2.81-3.17-42.21,3.42-40.23v-0.9h-12.78v0.9
		c2.27-0.21,3.31,2.84,3.33,4.68c0,0,0,35.55,0,35.55c-0.83,11.99,7.27,20.04,18.9,19.17c11.55,0.84,19.28-7.39,18.45-19.26
		c0,0,0-35.46,0-35.46c0.05-1.84,1.02-4.92,3.33-4.68v-0.9h-9.81V206.33z M326.39,238.69h9.71v-9.71h-9.71V238.69z"/>
	<path d="M-0.47,0.05v281.86h599c0-2.91,0-278.92,0-281.86H-0.47z M4.53,276.91l0-271.86h589l0,271.86H4.53z"/>
	<g>
		<path fill="#2C2E84" d="M103.2,111.75c-4.2-4.13-20.83-2.34-27.1-2.7v20.3c6.37-0.4,22.78,1.52,27.07-2.84
			C107.4,123.12,107.68,115.17,103.2,111.75z"/>
		<path fill="#2C2E84" d="M99.64,87.48c3.68-2.95,3.89-11.03,0-14.05c-3.66-3.76-18.06-2.13-23.55-2.46v19
			C81.64,89.66,96.01,91.25,99.64,87.48z"/>
		<path fill="#2C2E84" d="M199.35,70.9h-13.74v20.37c6.85-0.17,13.92,0.69,21.47-1.37C220.06,85.19,214.55,68.9,199.35,70.9z"/>
		<path fill="#2C2E84" d="M19.81,17.98v173.57h219.95l-38.06-71.29c-4.03-8.14-8.13-10.51-16.09-10.05v40.67H154.2V50.67h52.13
			c15.98,0.58,25.74,0.17,34.52,11.59c11.48,16.77,1.39,41.76-19.76,44.4c8.46,2.06,13.51,8.51,17.53,15.19
			c0,0,36.53,69.7,36.53,69.7h305.03V17.98H19.81z M133.86,136.39c-11.05,22.84-68.13,12.12-89,14.49V50.67
			c15.83,1.98,68.69-5.69,80.22,7.18c13.12,11.53,9.13,34.96-8.58,39.72C135.54,100.69,142.59,120.9,133.86,136.39z M349.04,150.88
			H263.7V50.67h83.82v21.4h-52.47v15.93h48.68v20.44h-48.68v19.76h53.99V150.88z M453.85,75.41h-31.9v75.47h-31.28V75.41h-31.9
			V50.67h95.07V75.41z M557.91,75.41h-32.53v75.47h-31.9V75.41h-32.53V50.67h96.95V75.41z"/>
	</g>
</g>
</svg>
